<?xml version="1.0" encoding="iso-8859-1"?>
<!-- Generator: Adobe Illustrator 19.0.0, SVG Export Plug-In . SVG Version: 6.00 Build 0)  -->
<svg version="1.1" id="Capa_1" xmlns="http://www.w3.org/2000/svg" xmlns:xlink="http://www.w3.org/1999/xlink" x="0px" y="0px"
	 viewBox="0 0 480 480" style="enable-background:new 0 0 480 480;" xml:space="preserve">
<g>
	<circle style="fill:#ABD4D8;" cx="432" cy="432" r="32"/>
	<circle style="fill:#ABD4D8;" cx="432" cy="320" r="32"/>
	<circle style="fill:#ABD4D8;" cx="48" cy="48" r="32"/>
</g>
<g>
	<path style="fill:#203C51;" d="M48,96c26.472,0,48-21.528,48-48S74.472,0,48,0C21.536,0,0,21.528,0,48S21.536,96,48,96z M48,16
		c17.648,0,32,14.352,32,32S65.648,80,48,80S16,65.648,16,48S30.36,16,48,16z"/>
	<path style="fill:#203C51;" d="M432,272c-26.472,0-48,21.528-48,48s21.528,48,48,48s48-21.528,48-48S458.472,272,432,272z M432,352
		c-17.648,0-32-14.352-32-32s14.352-32,32-32s32,14.352,32,32S449.648,352,432,352z"/>
	<path style="fill:#203C51;" d="M432,384c-26.472,0-48,21.528-48,48s21.528,48,48,48s48-21.528,48-48S458.472,384,432,384z M432,464
		c-17.648,0-32-14.352-32-32s14.352-32,32-32s32,14.352,32,32S449.648,464,432,464z"/>
	<path style="fill:#203C51;" d="M242.344,66.344l11.312,11.312l24-24c3.128-3.128,3.128-8.184,0-11.312l-24-24l-11.312,11.312
		L252.688,40H112v16h140.688L242.344,66.344z"/>
	<path style="fill:#203C51;" d="M464,116c0,33.088-26.912,60-60,60h-16.688l10.344-10.344l-11.312-11.312l-24,24
		c-3.128,3.128-3.128,8.184,0,11.312l24,24l11.312-11.312L387.312,192H404c41.904,0,76-34.096,76-76s-34.096-76-76-76H296v16h108
		C437.088,56,464,82.912,464,116z"/>
	<path style="fill:#203C51;" d="M341.656,290.344l-11.312,11.312L340.688,312H240v16h100.688l-10.344,10.344l11.312,11.312l24-24
		c3.128-3.128,3.128-8.184,0-11.312L341.656,290.344z"/>
	<path style="fill:#203C51;" d="M341.656,402.344l-11.312,11.312L340.688,424H208c-26.472,0-48-21.528-48-48
		c0-19.12-8.472-36.264-21.808-48h58.496l-10.344,10.344l11.312,11.312l24-24c3.128-3.128,3.128-8.184,0-11.312l-24-24
		l-11.312,11.312L196.688,312H96h-8H76c-33.088,0-60-26.912-60-60s26.912-60,60-60h84v-16H76c-41.904,0-76,34.096-76,76
		s34.096,76,76,76h12h8c26.472,0,48,21.528,48,48c0,35.288,28.712,64,64,64h132.688l-10.344,10.344l11.312,11.312l24-24
		c3.128-3.128,3.128-8.184,0-11.312L341.656,402.344z"/>
	<path style="fill:#203C51;" d="M344,176H203.312l10.344-10.344l-11.312-11.312l-24,24c-3.128,3.128-3.128,8.184,0,11.312l24,24
		l11.312-11.312L203.312,192H344V176z"/>
	<rect x="104" y="384" style="fill:#203C51;" width="16" height="16"/>
	<rect x="72" y="384" style="fill:#203C51;" width="16" height="16"/>
	<rect x="40" y="384" style="fill:#203C51;" width="16" height="16"/>
</g>
<g>
</g>
<g>
</g>
<g>
</g>
<g>
</g>
<g>
</g>
<g>
</g>
<g>
</g>
<g>
</g>
<g>
</g>
<g>
</g>
<g>
</g>
<g>
</g>
<g>
</g>
<g>
</g>
<g>
</g>
</svg>
